<?xml version="1.0" encoding="iso-8859-1"?>
<!-- Generator: Adobe Illustrator 19.0.0, SVG Export Plug-In . SVG Version: 6.00 Build 0)  -->
<svg version="1.1" id="Layer_1" xmlns="http://www.w3.org/2000/svg" xmlns:xlink="http://www.w3.org/1999/xlink" x="0px" y="0px"
	 viewBox="0 0 512 512" style="enable-background:new 0 0 512 512;" xml:space="preserve">
<path style="fill:#B3D8F4;" d="M391.837,478.302H120.163V28.735c0-11.542,9.356-20.898,20.898-20.898h229.878
	c11.542,0,20.898,9.356,20.898,20.898V478.302z"/>
<g>
	<rect x="120.163" y="265.404" style="fill:#3D9AE2;" width="271.673" height="24.555"/>
	<rect x="120.163" y="453.486" style="fill:#3D9AE2;" width="271.673" height="24.816"/>
</g>
<g>
	<rect x="147.853" y="50.155" style="fill:#FFFFFF;" width="15.673" height="133.747"/>
	<rect x="147.853" y="332.278" style="fill:#FFFFFF;" width="15.673" height="52.245"/>
	<rect x="249.731" y="71.053" style="fill:#FFFFFF;" width="106.58" height="134.792"/>
</g>
<rect x="249.731" y="71.053" style="fill:#3D9AE2;" width="24.555" height="134.792"/>
<path d="M370.939,0H141.061c-15.844,0-28.735,12.89-28.735,28.735v457.404h287.347V28.735C399.673,12.89,386.783,0,370.939,0z
	 M141.061,15.673h229.878c7.202,0,13.061,5.859,13.061,13.061v228.833H128V28.735C128,21.532,133.859,15.673,141.061,15.673z
	 M128,282.122v-8.882h256v8.882H128z M384,297.796v147.853H128V297.796H384z M128,470.465v-9.143h256v9.143H128z"/>
<rect x="339.592" y="496.327" width="52.245" height="15.673"/>
<rect x="120.163" y="496.327" width="52.245" height="15.673"/>
<path d="M364.147,63.216H241.894v150.465h122.253V63.216z M257.567,78.89h8.882v119.118h-8.882V78.89z M348.473,198.008h-66.351
	V78.89h66.351V198.008z"/>
<g>
</g>
<g>
</g>
<g>
</g>
<g>
</g>
<g>
</g>
<g>
</g>
<g>
</g>
<g>
</g>
<g>
</g>
<g>
</g>
<g>
</g>
<g>
</g>
<g>
</g>
<g>
</g>
<g>
</g>
</svg>
